<svg version="1.1" id="Layer_1" xmlns="http://www.w3.org/2000/svg" xmlns:xlink="http://www.w3.org/1999/xlink" x="0px" y="0px"
	 width="100%" viewBox="0 0 672 1024" enable-background="new 0 0 672 1024" xml:space="preserve">
<path fill="#000000" opacity="1.000000" stroke="none" 
	d="
M404.228577,620.033142 
	C406.086090,616.619568 405.972839,613.255066 405.945587,609.929016 
	C405.919647,606.764404 405.677917,603.601929 405.636780,600.437073 
	C405.550323,593.791077 407.568085,590.289856 412.176483,588.906128 
	C416.963409,587.468872 422.368958,589.611084 425.662384,594.291443 
	C427.721680,597.218018 428.595215,600.598389 429.323639,604.037415 
	C429.761139,606.102783 429.775757,608.304626 431.128784,610.324646 
	C433.751404,609.839539 435.599396,608.311462 437.737091,606.143311 
	C424.040497,581.980835 408.364807,560.073914 380.908203,549.954834 
	C355.270264,577.117615 332.622467,577.072021 309.814331,549.648499 
	C295.108887,555.839661 282.026184,564.328857 271.890991,577.026672 
	C265.752472,584.717285 259.732147,592.481384 255.047729,601.170471 
	C251.809219,607.177612 252.022110,607.570740 259.054565,610.347839 
	C261.405487,607.495361 260.613922,603.717407 261.659851,600.485352 
	C263.222961,595.655273 265.538452,591.659119 270.404358,589.591553 
	C278.459106,586.168884 285.541687,591.303345 284.772156,600.010803 
	C284.522980,602.830444 284.141296,605.642212 284.000641,608.466614 
	C283.737946,613.740784 284.673706,618.696533 287.764587,623.184448 
	C293.889404,632.077576 296.338013,641.527832 291.667847,651.938599 
	C290.659851,654.185547 290.814270,656.788147 291.719574,658.801880 
	C296.200348,668.769165 293.812683,678.758179 292.123657,688.707336 
	C290.415710,698.768005 287.452698,708.467834 282.332153,717.395020 
	C279.049591,723.117859 274.959778,728.317017 269.266754,731.590515 
	C264.627228,734.258301 263.413483,737.983765 263.361389,742.703613 
	C263.352203,743.536560 263.330536,744.370483 263.278900,745.201721 
	C263.110138,747.919617 262.270264,750.295105 259.125824,750.489563 
	C255.826172,750.693542 253.844238,748.414368 254.034943,745.563904 
	C254.461197,739.193420 251.364761,739.705750 246.436630,739.876221 
	C227.543472,740.529724 209.938309,730.664490 206.712875,707.314392 
	C204.642242,692.324341 208.170105,678.156616 213.231018,664.325500 
	C214.993393,659.509155 214.748199,656.690796 209.722565,654.549072 
	C205.552948,652.772156 202.191742,649.638306 199.403427,646.033569 
	C193.899887,638.918884 195.623138,633.819702 204.819748,631.228271 
	C201.451721,627.169067 197.698074,623.689514 194.935623,619.408081 
	C190.591202,612.674927 190.579468,609.795349 195.564774,603.559509 
	C196.625244,602.233032 196.422699,601.195496 195.760849,599.943604 
	C193.525803,595.716614 192.324112,591.331543 196.097183,587.463501 
	C200.058502,583.402527 204.606567,584.781189 209.028198,586.916565 
	C209.289215,587.042542 209.664062,586.932861 210.013550,586.932861 
	C211.415604,585.562988 210.674438,583.775085 210.944397,582.206665 
	C211.564850,578.602234 212.625549,575.230774 216.568573,574.094360 
	C220.606171,572.930603 224.278488,574.020081 226.939117,577.262085 
	C228.932892,579.691528 230.573715,582.435120 232.181442,585.151489 
	C235.319504,590.453369 238.978058,595.294556 243.761993,599.990845 
	C247.922104,593.609741 251.665619,587.777527 255.498260,582.004517 
	C270.832001,558.907837 292.238586,544.296082 318.747559,536.841675 
	C320.655426,536.305237 322.737335,536.083557 323.589355,533.838440 
	C325.035553,530.027466 323.409790,527.691772 319.113770,527.295349 
	C293.220184,524.906067 269.738647,516.477539 249.999634,499.106934 
	C237.129593,487.781036 228.731796,473.399017 224.178574,457.071686 
	C210.738205,408.876068 221.413025,365.786560 253.718872,328.197113 
	C265.337830,314.677887 280.659821,306.050293 298.475006,302.541199 
	C299.901855,302.260193 301.292175,301.793915 303.457916,301.208832 
	C298.220093,297.901459 293.156952,298.113068 288.124969,298.574066 
	C284.983246,298.861908 281.890503,299.649780 278.755920,300.062622 
	C276.957489,300.299561 274.727631,300.596130 274.081177,298.343903 
	C273.358887,295.827576 275.530090,294.750763 277.384888,294.093353 
	C285.994354,291.041840 294.855591,289.839447 303.941376,291.228210 
	C311.230103,292.342255 318.321381,294.287140 324.677429,298.106171 
	C328.125732,300.178101 331.256531,300.219727 335.045776,299.114044 
	C361.080109,291.517548 386.100098,293.917206 409.784332,307.464569 
	C429.535614,318.762268 442.467896,336.000916 451.708099,356.328430 
	C460.888550,376.524445 467.458527,397.664032 467.465424,419.858521 
	C467.477051,457.294800 454.075714,488.330048 420.864136,508.861298 
	C406.001465,518.049316 390.028809,523.638245 372.905121,526.428894 
	C370.356232,526.844299 367.099487,526.601318 367.039703,530.975891 
	C366.986542,534.863770 368.954742,536.062866 372.231750,536.958679 
	C403.667908,545.552429 425.557678,565.983765 441.805298,593.351746 
	C442.986572,595.341492 444.227814,597.295715 445.584564,599.499329 
	C449.643860,597.581787 451.537628,593.967896 453.820801,590.864502 
	C456.480438,587.249451 458.724915,583.329346 461.157990,579.547058 
	C463.908813,575.270935 467.563599,572.546509 472.861664,573.979126 
	C477.938751,575.351990 478.863373,579.690063 479.237244,584.201477 
	C479.304077,585.007935 479.446228,585.808228 479.537628,586.491760 
	C481.232361,587.234253 482.319580,586.186035 483.504547,585.722656 
	C487.214233,584.272034 490.766693,584.302246 493.743927,587.180847 
	C496.601227,589.943604 496.722290,593.452332 495.350830,596.924683 
	C494.016449,600.303223 493.096344,602.902466 496.937653,605.812439 
	C500.001526,608.133545 498.974213,612.154297 497.402008,615.537048 
	C496.056244,618.432678 494.311615,621.056091 492.288208,623.502686 
	C490.287323,625.921997 488.243591,628.305908 486.163574,630.770691 
	C495.549225,634.619202 496.707550,639.992249 489.829803,647.256958 
	C486.726685,650.534668 483.246613,653.418213 479.073853,655.280579 
	C475.736755,656.770020 474.920868,658.747192 476.338074,662.367188 
	C481.285217,675.003662 484.588165,688.046631 484.231659,701.757080 
	C483.756348,720.035706 474.658417,732.666260 457.817993,738.224548 
	C452.573853,739.955322 447.097351,740.511536 441.560059,739.432556 
	C437.882233,738.715942 435.796783,739.746643 436.175598,744.047913 
	C436.465698,747.341492 435.285370,750.354858 431.552063,750.542480 
	C427.547272,750.743774 426.712616,747.496826 426.762421,744.316650 
	C426.857086,738.274597 424.828674,734.110474 419.536438,730.277344 
	C409.919800,723.312012 404.946259,712.785461 401.591522,701.544312 
	C398.533325,691.296814 396.330750,680.957092 396.516571,670.148804 
	C396.598602,665.377075 399.214386,661.265564 399.226105,656.540344 
	C399.229370,655.227600 399.596863,653.966431 399.016785,652.658386 
	C394.232605,641.869995 395.988403,631.889343 402.785828,622.537598 
	C403.272980,621.867371 403.623840,621.098083 404.228577,620.033142 
M258.606567,441.874390 
	C259.154694,445.158661 259.643646,448.454102 260.260162,451.725494 
	C266.138855,482.919403 283.036652,504.420074 314.384949,513.200928 
	C325.392090,516.284119 336.620697,517.269165 348.010437,516.949219 
	C350.154999,516.888916 352.580688,516.893372 353.617188,519.316223 
	C354.717163,521.887512 352.595703,523.309998 351.079681,524.753235 
	C346.868011,528.762512 341.550690,530.786926 336.195312,532.667297 
	C334.029968,533.427612 332.313904,534.261719 332.116455,536.985352 
	C331.813538,541.163452 329.473328,543.600464 325.251068,544.311951 
	C323.671722,544.578125 321.956543,544.905579 320.928497,546.406189 
	C323.957550,554.444275 333.794617,559.910461 345.071930,559.873291 
	C356.877411,559.834351 366.992096,554.203857 369.965973,546.015564 
	C358.033966,540.615295 357.459808,539.668762 357.906097,526.135742 
	C357.917114,525.802612 357.916656,525.469055 357.931946,525.136230 
	C358.314545,516.804565 358.931091,515.994873 366.946136,513.839783 
	C392.090363,507.078918 409.516479,491.766296 418.260162,467.100983 
	C423.939606,451.079620 425.715668,434.379639 425.954346,417.475891 
	C426.008331,413.652283 427.338348,409.229523 425.852783,406.161469 
	C424.096008,402.533264 418.777435,403.486603 415.049988,402.385223 
	C392.499512,395.722260 374.248077,382.430237 358.062378,365.883820 
	C355.337860,363.098633 352.709290,360.219604 350.036407,357.383911 
	C352.515259,367.902771 357.884460,376.517883 365.342316,383.874664 
	C366.800720,385.313354 368.401917,386.782837 366.922668,389.012939 
	C365.666321,390.907013 363.639679,391.205566 361.575195,390.784943 
	C358.295959,390.116821 355.162201,388.995514 352.243958,387.322479 
	C334.369873,377.075287 322.489136,362.026184 316.213715,342.454865 
	C315.722656,340.923370 315.932434,339.052887 313.848633,337.643524 
	C307.195679,339.714630 301.510101,343.999939 296.149200,348.659424 
	C280.648407,362.132324 270.084991,379.165985 261.105408,397.389557 
	C258.462830,402.752533 257.047852,408.022247 257.118805,414.052826 
	C257.224792,423.061127 257.747192,432.023254 258.606567,441.874390 
M258.645660,671.272583 
	C265.728912,672.478821 272.561920,671.683105 279.152557,668.779907 
	C282.694672,667.219543 284.470917,664.492554 283.443756,660.793701 
	C282.249512,656.493286 283.189362,652.556213 284.415100,648.565247 
	C286.487305,641.817993 286.091125,635.204102 282.086914,629.401184 
	C276.128540,620.766235 274.329926,611.553345 276.502228,601.388611 
	C276.830475,599.852844 277.395752,597.752380 275.476837,596.911743 
	C273.453979,596.025574 271.997009,597.684387 270.903595,599.111450 
	C267.796509,603.166870 267.536133,608.032471 267.298553,612.879211 
	C267.163239,615.639771 267.920319,618.818542 264.752136,620.433472 
	C261.485718,622.098511 258.725220,620.446594 255.915588,618.775574 
	C242.648544,610.884705 231.504395,600.900696 223.906128,587.242310 
	C222.972672,585.564331 222.247910,583.210449 219.159683,583.013916 
	C218.708740,590.402710 221.787155,596.152710 226.059067,601.373535 
	C229.980148,606.165710 234.931213,609.896912 239.613342,613.900208 
	C241.150833,615.214783 242.649124,616.849304 241.064835,619.039307 
	C239.636581,621.013672 237.656509,620.846069 235.690689,619.871948 
	C230.257599,617.179749 225.588013,613.442078 221.323868,609.183594 
	C217.081314,604.946716 212.975876,600.569519 208.652084,596.418640 
	C206.964432,594.798462 205.202744,592.756165 202.084061,593.551331 
	C201.941101,596.909180 204.039703,598.928772 205.743408,601.089294 
	C212.284744,609.384583 219.990936,616.450439 228.437576,622.775818 
	C230.493164,624.315125 234.394531,625.710388 232.291031,629.185974 
	C229.849136,633.220825 226.755035,630.104980 224.097977,628.752747 
	C217.756439,625.525513 212.976700,620.353638 207.867203,615.583496 
	C205.757294,613.613770 203.674042,611.372375 200.331818,611.376038 
	C199.800034,613.808594 201.280319,615.104797 202.274887,616.549377 
	C205.131424,620.698547 208.756653,624.151001 212.530869,627.432007 
	C217.054184,631.364197 221.673691,635.185913 226.262009,639.043030 
	C227.925262,640.441284 230.092102,641.808167 228.793976,644.341675 
	C227.264374,647.326965 224.734436,645.772522 222.654541,645.000488 
	C218.753967,643.552490 214.961288,641.814819 211.065872,640.351746 
	C209.472412,639.753235 207.775253,638.565063 205.783371,640.166199 
	C206.397263,642.192505 207.998611,643.380188 209.505722,644.631836 
	C214.567184,648.835388 220.375717,651.701660 226.477966,654.014893 
	C234.414978,657.023743 242.398132,659.913025 250.302063,663.005493 
	C252.382141,663.819458 255.526901,664.748718 254.804794,667.512085 
	C253.883423,671.038086 256.264557,670.450623 258.645660,671.272583 
M479.758026,645.329102 
	C481.489471,643.533325 484.019318,642.361511 484.810822,639.172668 
	C478.152588,639.554016 473.116425,643.120239 467.525208,645.014648 
	C465.549042,645.684204 463.223633,647.000366 461.766846,644.343628 
	C460.373138,641.801819 462.416443,640.447876 464.107544,639.023193 
	C471.239777,633.014343 478.511536,627.149780 484.913055,620.337830 
	C487.336975,617.758484 489.927460,615.171631 490.613800,610.935303 
	C486.211029,611.815674 483.501404,614.524170 480.711243,617.027954 
	C475.624359,621.592834 470.533478,626.136841 464.505585,629.471924 
	C462.138489,630.781738 459.491028,632.552368 457.528656,629.387756 
	C455.656860,626.369141 458.569427,624.889404 460.511871,623.503418 
	C469.534790,617.065247 477.258881,609.282349 484.291779,600.781555 
	C486.118866,598.573120 488.234131,596.381470 487.894562,592.787231 
	C482.893066,593.328979 480.138275,596.536255 477.405670,599.619629 
	C470.868774,606.995483 464.165314,614.157166 455.660095,619.364136 
	C453.562561,620.648193 451.369965,621.931763 449.430481,619.566101 
	C447.252411,616.909424 449.177551,614.981079 451.182251,613.270874 
	C453.083344,611.649109 455.022858,610.070862 456.890289,608.411499 
	C461.638489,604.192261 466.316986,599.887512 468.822876,593.849609 
	C470.252655,590.404602 471.768555,586.909424 470.153168,582.854736 
	C467.282684,584.336731 466.092010,586.820374 464.822815,589.073303 
	C457.201752,602.601257 445.609283,611.900208 432.543243,619.627869 
	C426.781921,623.035278 423.004364,620.812683 422.698029,614.029785 
	C422.494476,609.521973 422.100983,605.031128 420.252686,600.845337 
	C419.279724,598.641907 417.712921,596.295471 415.113251,596.998840 
	C412.387604,597.736267 413.196014,600.601624 413.581024,602.612183 
	C415.390961,612.063782 414.015259,620.728149 408.388702,628.771667 
	C404.474731,634.366943 403.388092,640.733826 405.568115,647.355164 
	C407.043732,651.836975 408.023804,656.292358 407.315002,661.061218 
	C406.745911,664.889954 408.610046,667.325562 412.162994,668.796204 
	C418.818024,671.550903 425.580475,672.611694 432.662201,670.790405 
	C433.782867,670.502197 435.629486,670.511719 435.640869,669.406372 
	C435.717316,661.991211 442.103973,662.364990 446.490753,660.576477 
	C457.584045,656.053589 469.122589,652.546936 479.758026,645.329102 
M474.825897,693.726685 
	C474.191315,683.651978 471.069519,674.186584 467.831268,664.733582 
	C466.525604,660.922058 464.765869,661.711670 462.407135,663.733521 
	C462.738525,664.525024 462.951416,665.145081 463.247192,665.722595 
	C466.282990,671.649475 469.175232,677.640137 470.937103,684.093750 
	C471.388702,685.747803 471.470490,687.584167 469.668121,688.502869 
	C467.712646,689.499573 466.582214,687.919189 465.606873,686.590698 
	C464.726410,685.391479 464.065521,684.031738 463.298706,682.748230 
	C460.522614,678.101562 458.682739,672.851379 454.543884,668.773926 
	C439.761841,682.862488 423.152222,684.175049 404.709625,675.873230 
	C406.296600,690.377869 409.507050,703.626526 417.163574,715.492981 
	C422.282410,723.426392 429.411865,728.402100 438.757172,730.279419 
	C454.531799,733.448303 468.069275,726.313416 473.165161,711.945496 
	C475.155609,706.333435 475.004974,700.499084 474.825897,693.726685 
M267.373688,681.154480 
	C255.107422,681.618347 244.586243,677.478760 235.751251,668.542297 
	C231.574005,673.156311 229.364594,678.389099 226.506485,683.213257 
	C225.108337,685.573181 224.342331,690.070496 220.666306,688.404602 
	C217.217545,686.841553 219.546875,682.998169 220.351471,680.315186 
	C222.111633,674.445679 225.279022,669.147949 228.020889,663.679871 
	C223.972183,661.923157 223.556808,661.879150 222.442108,664.841492 
	C217.722275,677.384644 214.146423,690.247375 215.427551,703.788635 
	C216.410324,714.176270 220.419128,723.189331 230.614624,727.929565 
	C243.703751,734.015198 260.137329,731.096924 269.620056,720.322021 
	C280.385132,708.090088 283.312408,692.748047 285.746643,676.453369 
	C279.565125,678.807983 274.168304,680.969299 267.373688,681.154480 
M455.405670,427.328644 
	C452.916504,420.434448 448.128662,416.295319 440.788635,415.435455 
	C438.881287,415.211945 436.438263,414.945984 436.200378,417.879791 
	C435.828613,422.464508 435.679138,427.067261 435.433136,431.706268 
	C438.601074,432.069031 440.614197,430.230743 442.988098,429.617554 
	C446.136322,428.804352 449.431763,428.582520 450.720154,432.004608 
	C452.058594,435.559631 448.211151,435.675629 446.228485,436.676361 
	C436.334961,441.670349 430.693359,451.314087 431.798035,461.674225 
	C447.184357,462.476990 458.833710,446.048065 455.405670,427.328644 
M249.615128,462.393311 
	C252.431152,462.321533 251.567749,460.375275 251.459625,458.795532 
	C250.745712,448.363892 245.389221,441.141418 236.129272,436.626923 
	C234.341339,435.755249 231.916428,435.086121 232.591949,432.557312 
	C233.337646,429.765808 236.004013,429.517609 238.362213,429.989746 
	C241.398743,430.597626 244.348206,431.640350 247.673019,432.592529 
	C247.673019,428.192993 247.580429,424.051422 247.702652,419.916199 
	C247.798294,416.680664 246.014374,416.034851 243.283936,416.054230 
	C236.304428,416.103790 230.206329,421.115417 228.309113,428.507568 
	C224.498840,443.353516 232.582016,456.580811 249.615128,462.393311 
z"/>
<path fill="#000000" opacity="1.000000" stroke="none" 
	d="
M310.994720,423.902649 
	C313.168579,420.208954 313.425690,416.293182 314.624542,412.676392 
	C315.287415,410.676666 316.250916,408.836243 318.668518,408.917053 
	C321.357635,409.006958 322.122620,411.117889 322.627472,413.334747 
	C324.706970,422.465424 317.499023,434.790588 308.096588,438.171021 
	C299.456879,441.277222 289.591583,436.641998 285.088715,427.182007 
	C283.076324,422.954254 281.618225,418.514496 282.472565,413.699554 
	C282.877075,411.419922 283.873444,409.395020 286.512756,409.362122 
	C288.928619,409.332031 289.782806,411.238403 290.354431,413.290192 
	C291.375916,416.956543 291.971649,420.725403 294.053131,424.086670 
	C298.870728,431.866180 305.673065,431.986694 310.994720,423.902649 
z"/>
<path fill="#000000" opacity="1.000000" stroke="none" 
	d="
M366.030396,415.056641 
	C367.097321,419.161438 368.115997,422.855865 370.570435,425.946075 
	C374.729279,431.182190 380.339661,430.978973 384.270905,425.550262 
	C387.106171,421.635010 387.697449,416.936829 389.128754,412.523560 
	C389.708557,410.735931 390.628540,408.987701 392.869202,409.096039 
	C394.949036,409.196625 396.251648,410.672455 396.681152,412.549103 
	C398.427277,420.178345 395.738556,426.737335 391.035004,432.461304 
	C386.856384,437.546478 381.256317,439.957672 374.589752,438.693298 
	C363.878357,436.661835 355.177368,422.740631 357.852631,412.183350 
	C358.295197,410.436920 359.147980,409.076508 361.060455,408.819489 
	C363.007874,408.557800 364.225067,409.652771 364.909668,411.335083 
	C365.345795,412.406891 365.578339,413.561493 366.030396,415.056641 
z"/>
<path fill="#000000" opacity="1.000000" stroke="none" 
	d="
M362.195526,461.092224 
	C364.068970,459.326202 365.893585,458.591675 367.815002,460.086243 
	C369.861145,461.677887 369.644501,463.931824 368.773926,466.005768 
	C367.395203,469.290039 365.067749,471.887024 362.237579,474.032654 
	C350.669678,482.802551 333.580200,483.316345 321.529388,475.220825 
	C320.295746,474.392090 318.997284,473.523621 318.079956,472.389618 
	C316.363373,470.267639 313.614502,467.902405 316.079651,465.051025 
	C318.418549,462.345703 320.546600,465.149963 322.504303,466.432800 
	C334.993317,474.616272 350.975739,474.514709 362.195526,461.092224 
z"/>
<path fill="#000000" opacity="1.000000" stroke="none" 
	d="
M336.303925,424.600464 
	C336.986176,422.334839 337.176880,419.881287 339.850616,420.069183 
	C342.228394,420.236298 342.786224,422.401215 343.313568,424.391388 
	C345.036621,430.893768 344.006409,436.593506 338.645294,441.118439 
	C337.777954,441.850464 336.727997,442.499695 336.596130,444.014435 
	C337.506836,446.280609 339.979889,446.839935 341.829376,448.131805 
	C343.633453,449.391907 344.886627,450.919495 343.866821,453.151978 
	C342.953888,455.150513 341.065399,455.299469 339.139984,454.887115 
	C335.496094,454.106720 332.146637,452.622650 329.341644,450.166199 
	C324.021271,445.506989 324.247528,439.933197 330.312469,436.303558 
	C334.833954,433.597687 335.978424,429.665741 336.303925,424.600464 
z"/>
<path fill="#000000" opacity="1.000000" stroke="none" 
	d="
M257.959137,646.920044 
	C252.154312,645.128113 246.516556,644.854004 240.912964,644.353821 
	C239.569077,644.233887 238.051910,644.232849 237.688202,642.622131 
	C237.264954,640.747803 238.799149,640.069885 240.154907,639.388123 
	C248.805283,635.038330 266.933167,639.267578 272.615326,647.044189 
	C273.470703,648.214966 273.999573,649.659546 274.506775,651.040833 
	C275.198090,652.923584 275.018219,654.752441 273.092926,655.803955 
	C271.251526,656.809692 269.923370,655.637817 268.839172,654.282043 
	C266.059875,650.806641 262.545349,648.429260 257.959137,646.920044 
z"/>
<path fill="#000000" opacity="1.000000" stroke="none" 
	d="
M441.104828,645.229248 
	C433.454376,646.253357 426.544250,647.865234 421.908783,654.252747 
	C420.840027,655.725403 419.495392,656.623901 417.638824,655.638550 
	C415.874878,654.702271 415.605042,653.059875 415.993988,651.329285 
	C416.883453,647.371216 419.291595,644.344604 422.641449,642.310181 
	C430.910126,637.288330 439.872009,636.554749 449.134766,638.799805 
	C450.843262,639.213928 453.121094,639.771545 452.866028,642.099609 
	C452.595551,644.568542 450.213470,644.067139 448.468384,644.287598 
	C446.157654,644.579407 443.849030,644.888306 441.104828,645.229248 
z"/>
</svg>