<?xml version="1.0" encoding="UTF-8"?>
<svg version="1.1" xmlns="http://www.w3.org/2000/svg" width="500" height="500">
<path d="M0 0 C0.75925781 0.12375 1.51851563 0.2475 2.30078125 0.375 C3.06777344 0.478125 3.83476562 0.58125 4.625 0.6875 C6.61328125 1.375 6.61328125 1.375 8.61328125 4.375 C8.89175415 6.2922821 8.89175415 6.2922821 8.93212891 8.47924805 C8.9519986 9.29987228 8.97186829 10.12049652 8.99234009 10.96598816 C9.0038913 11.84732925 9.0154425 12.72867035 9.02734375 13.63671875 C9.0467099 14.54251175 9.06607605 15.44830475 9.08602905 16.38154602 C9.14581667 19.27510151 9.19220693 22.1686968 9.23828125 25.0625 C9.27646179 27.02410591 9.31551356 28.98569506 9.35546875 30.94726562 C9.45151757 35.7563744 9.53555168 40.56556166 9.61328125 45.375 C10.88535883 43.31977134 12.15597201 41.26366077 13.42578125 39.20703125 C13.78220703 38.63150513 14.13863281 38.055979 14.50585938 37.4630127 C17.3553659 32.84400184 20.04429797 28.154791 22.61328125 23.375 C23.27328125 23.375 23.93328125 23.375 24.61328125 23.375 C24.92265625 22.1065625 24.92265625 22.1065625 25.23828125 20.8125 C27.25256783 15.77678354 30.11897832 11.55979389 35.11328125 9.1875 C38.91196843 9.47240154 40.79245382 10.87472114 43.61328125 13.375 C44.97951908 16.39510467 45.01458174 18.21466829 43.9296875 21.3515625 C38.68963671 32.52265979 31.52287127 43.16506462 24.61328125 53.375 C33.65822924 48.96077671 42.56825363 44.43339577 51.20703125 39.25805664 C55.00351147 37.04426365 58.20050904 35.63532181 62.61328125 35.375 C64.94059681 36.51279872 66.78168839 37.54340714 68.61328125 39.375 C69.17642748 42.47230426 69.23352576 45.2843799 68.61328125 48.375 C66.18572268 50.69466708 64.5116034 51.86216753 61.61328125 53.375 C60.84886719 53.80941406 60.08445312 54.24382812 59.296875 54.69140625 C56.42591512 56.30002041 53.52226664 57.83598796 50.61328125 59.375 C49.1743023 60.13701764 47.73533833 60.89906356 46.29638672 61.66113281 C44.77442974 62.46682648 43.25245683 63.27249007 41.73046875 64.078125 C40.5556897 64.70001709 40.5556897 64.70001709 39.35717773 65.33447266 C37.44255954 66.34800815 35.52792234 67.36150775 33.61328125 68.375 C34.80405273 68.3843457 35.99482422 68.39369141 37.22167969 68.40332031 C41.64263217 68.44321387 46.06288828 68.50897073 50.48339844 68.58251953 C52.39606781 68.61073286 54.30885385 68.63194561 56.22167969 68.64599609 C58.97261298 68.66742081 61.722143 68.7140674 64.47265625 68.765625 C65.7541153 68.76746796 65.7541153 68.76746796 67.0614624 68.76934814 C72.99526661 68.91550978 72.99526661 68.91550978 76.16503906 71.2722168 C77.90898111 73.80434303 78.02165772 74.9206188 77.61328125 77.9375 C77.53078125 78.70191406 77.44828125 79.46632813 77.36328125 80.25390625 C76.32195088 83.19891871 75.35896771 83.84463489 72.61328125 85.375 C69.64410732 85.84963235 66.69394399 85.86367065 63.69140625 85.88671875 C62.83142029 85.90466995 61.97143433 85.92262115 61.08538818 85.94111633 C58.34473541 85.99520038 55.6042566 86.02910863 52.86328125 86.0625 C51.00257997 86.09567479 49.14190164 86.1301646 47.28125 86.16601562 C42.72538597 86.25092569 38.16957337 86.31774584 33.61328125 86.375 C34.11553223 86.66109131 34.6177832 86.94718262 35.13525391 87.24194336 C43.72013935 92.14297951 52.30183504 97.05656037 60.67578125 102.3125 C61.78050781 103.00214844 62.88523437 103.69179688 64.0234375 104.40234375 C66.56776329 106.34032946 67.66838288 107.36089379 68.61328125 110.375 C68.4368573 113.72705511 68.17597412 116.34891301 66.55078125 119.3125 C63.12013578 121.19382171 60.31401329 121.2754921 56.61328125 120.375 C52.67587513 118.36208564 49.02554858 115.98351652 45.35839844 113.52587891 C42.47276876 111.62284892 39.5081932 109.85103611 36.55078125 108.0625 C33.11095367 105.96628863 29.79148817 103.85201978 26.61328125 101.375 C26.28328125 101.705 25.95328125 102.035 25.61328125 102.375 C26.01643555 103.06537354 26.41958984 103.75574707 26.83496094 104.46704102 C28.67806791 107.62366607 30.52067858 110.78058055 32.36328125 113.9375 C32.9975 115.02353516 33.63171875 116.10957031 34.28515625 117.22851562 C35.51613897 119.33785581 36.74544233 121.44817713 37.97290039 123.55957031 C38.95497422 125.24512998 39.94205074 126.92781219 40.93920898 128.60449219 C43.20254769 132.44402139 44.49541383 134.86632235 43.61328125 139.375 C41.15734 142.69774404 39.68761685 144.15118008 35.61328125 145 C31.70513172 144.18580218 30.01312157 142.40854689 27.61328125 139.375 C25.10660879 135.50253621 22.82675744 131.51131752 20.55078125 127.5 C19.63329102 125.90478516 19.63329102 125.90478516 18.69726562 124.27734375 C16.99485604 121.31423085 15.30278509 118.34548521 13.61328125 115.375 C12.28080812 113.04117408 10.94706448 110.70807765 9.61328125 108.375 C9.60393555 109.56053467 9.59458984 110.74606934 9.58496094 111.9675293 C9.54502127 116.37546045 9.47925144 120.78269658 9.40576172 125.19018555 C9.37757515 127.09601905 9.35634909 129.00196895 9.34228516 130.90795898 C9.32082342 133.65148406 9.2741576 136.39361313 9.22265625 139.13671875 C9.22142761 139.98586349 9.22019897 140.83500824 9.21893311 141.70988464 C9.11883045 145.7734238 8.91499949 147.8914976 6.71606445 151.4152832 C4.61328125 153.375 4.61328125 153.375 2.359375 153.96875 C1.59753906 153.9378125 0.83570313 153.906875 0.05078125 153.875 C-0.71363281 153.8646875 -1.47804688 153.854375 -2.265625 153.84375 C-4.90541178 153.26037171 -5.70416243 152.46599329 -7.38671875 150.375 C-7.78544617 148.41975403 -7.78544617 148.41975403 -7.8190918 146.17895508 C-7.83888596 145.33831009 -7.85868011 144.4976651 -7.8790741 143.63154602 C-7.88546402 142.72833115 -7.89185394 141.82511627 -7.8984375 140.89453125 C-7.9163887 139.96654221 -7.9343399 139.03855316 -7.95283508 138.08244324 C-8.00703166 135.11750843 -8.04086375 132.15273545 -8.07421875 129.1875 C-8.10738357 127.17771181 -8.14187244 125.167945 -8.17773438 123.15820312 C-8.26276354 118.23058535 -8.32953013 113.30301636 -8.38671875 108.375 C-9.66216898 110.26947982 -10.93511891 112.1656431 -12.20703125 114.0625 C-12.91617676 115.11824219 -13.62532227 116.17398438 -14.35595703 117.26171875 C-17.73770563 122.44614507 -20.64069054 127.8334656 -23.38671875 133.375 C-24.04671875 133.375 -24.70671875 133.375 -25.38671875 133.375 C-25.63421875 134.2825 -25.88171875 135.19 -26.13671875 136.125 C-27.49022621 139.64411941 -28.28031647 141.24956686 -31.38671875 143.375 C-34.19511408 143.99330926 -36.58144725 144.01620491 -39.38671875 143.375 C-42.01171875 141.4375 -42.01171875 141.4375 -43.38671875 138.375 C-43.06517666 130.86559212 -39.07241616 124.97214011 -35.07421875 118.875 C-33.93031516 117.09501865 -32.78836638 115.31377943 -31.6484375 113.53125 C-31.09978027 112.67660156 -30.55112305 111.82195312 -29.98583984 110.94140625 C-27.63463729 107.16799537 -25.48897048 103.29139276 -23.38671875 99.375 C-25.32468653 100.47834544 -27.26204654 101.58275836 -29.19921875 102.6875 C-29.81216797 103.03490234 -30.42511719 103.38230469 -31.05664062 103.74023438 C-34.8474852 105.89625379 -38.60357466 108.09954962 -42.3359375 110.35546875 C-43.17342529 110.8558667 -44.01091309 111.35626465 -44.8737793 111.87182617 C-46.52609509 112.86019772 -48.17233858 113.85880514 -49.81176758 114.8684082 C-54.12760851 117.4330773 -57.20596142 119.17144478 -62.38671875 118.375 C-65.26171875 116.9375 -65.26171875 116.9375 -67.38671875 114.375 C-68.37216974 111.1291708 -68.47363483 108.60230466 -67.38671875 105.375 C-64.72032697 102.70860822 -61.83204924 100.89237353 -58.38671875 99.375 C-57.39671875 99.375 -56.40671875 99.375 -55.38671875 99.375 C-55.38671875 98.715 -55.38671875 98.055 -55.38671875 97.375 C-54.69707031 96.99988281 -54.00742188 96.62476563 -53.296875 96.23828125 C-52.35714844 95.72652344 -51.41742188 95.21476562 -50.44921875 94.6875 C-49.07443359 93.93919922 -49.07443359 93.93919922 -47.671875 93.17578125 C-43.56733109 90.92584696 -39.47649145 88.65164582 -35.38671875 86.375 C-36.93782349 86.35312622 -36.93782349 86.35312622 -38.52026367 86.33081055 C-42.36907957 86.27269118 -46.21731874 86.19545977 -50.06567383 86.11254883 C-51.72898983 86.07936345 -53.39241671 86.05131166 -55.0559082 86.02856445 C-57.45181374 85.99490001 -59.8467091 85.9425806 -62.2421875 85.88671875 C-62.98196335 85.88032883 -63.7217392 85.8739389 -64.4839325 85.86735535 C-68.92980737 85.74170029 -71.84816607 85.1201024 -75.38671875 82.375 C-76.91518536 79.31806678 -76.6191432 76.74515453 -76.38671875 73.375 C-75.46362305 71.18652344 -75.46362305 71.18652344 -73.38671875 69.375 C-70.2374775 68.7406846 -67.11040028 68.76998359 -63.90625 68.765625 C-62.51426643 68.74082062 -62.51426643 68.74082062 -61.09416199 68.71551514 C-58.1291144 68.66691573 -55.16458009 68.64563778 -52.19921875 68.625 C-50.18942713 68.5968503 -48.17965955 68.56692429 -46.16992188 68.53515625 C-41.24222974 68.46115355 -36.31482455 68.41165194 -31.38671875 68.375 C-32.80072035 67.41985412 -34.21641977 66.46722145 -35.6328125 65.515625 C-36.42099365 64.98485352 -37.2091748 64.45408203 -38.02124023 63.90722656 C-40.12466553 62.54474363 -42.24177719 61.30863794 -44.44921875 60.125 C-48.99966446 57.64735518 -53.41532315 54.96903918 -57.82421875 52.25 C-58.53521729 51.8178418 -59.24621582 51.38568359 -59.97875977 50.94042969 C-60.98314087 50.3163623 -60.98314087 50.3163623 -62.0078125 49.6796875 C-62.61036865 49.30827637 -63.2129248 48.93686523 -63.83374023 48.55419922 C-65.38671875 47.375 -65.38671875 47.375 -67.38671875 44.375 C-67.72821823 41.16490487 -67.67251984 39.03591501 -66.38671875 36.0625 C-63.39100819 33.53486921 -60.19123037 33.22472221 -56.38671875 33.375 C-53.48814352 34.34412957 -51.0312196 35.81914381 -48.44921875 37.4375 C-47.7519165 37.85217529 -47.05461426 38.26685059 -46.33618164 38.6940918 C-41.96152632 41.3194959 -37.64902835 44.05079472 -33.4765625 46.98828125 C-30.5319733 48.94216754 -27.46598335 50.6412964 -24.38671875 52.375 C-25.1996895 50.95230118 -26.01266878 49.52960723 -26.82568359 48.10693359 C-27.53969068 46.85733904 -28.2535553 45.60766307 -28.96728516 44.35791016 C-30.85119632 41.05962154 -32.73738973 37.76268378 -34.62890625 34.46875 C-34.98662109 33.84500488 -35.34433594 33.22125977 -35.71289062 32.57861328 C-36.71545576 30.8306587 -37.71903162 29.08328396 -38.72265625 27.3359375 C-43.12040859 19.51082888 -43.12040859 19.51082888 -42.38671875 14.375 C-39.9307775 11.05225596 -38.46105435 9.59881992 -34.38671875 8.75 C-29.35058775 9.79919396 -27.0156572 13.43274002 -24.24609375 17.58203125 C-23.53531318 18.77934243 -22.83226849 19.98127712 -22.13671875 21.1875 C-21.80542969 21.74630859 -21.47414062 22.30511719 -21.1328125 22.88085938 C-16.76371476 30.30832554 -12.60217803 37.85971575 -8.38671875 45.375 C-8.38260986 44.18946533 -8.37850098 43.00393066 -8.37426758 41.7824707 C-8.35245886 37.37447928 -8.29815134 32.96737828 -8.23413086 28.55981445 C-8.21096598 26.65397693 -8.19655868 24.74801167 -8.19116211 22.84204102 C-8.18186134 20.09831277 -8.14084804 17.35658937 -8.09375 14.61328125 C-8.09768265 13.76413651 -8.1016153 12.91499176 -8.10566711 12.04011536 C-7.99794968 7.65065068 -7.78919283 5.88820574 -4.99169922 2.32104492 C-2.38671875 0.375 -2.38671875 0.375 0 0 Z " fill="#E9E9E9" transform="translate(249.38671875,172.625)"/>
<path d="M0 0 C5.75 1.875 5.75 1.875 8 3 C8 3.66 8 4.32 8 5 C9.4540625 5.433125 9.4540625 5.433125 10.9375 5.875 C14 7 14 7 15 9 C14.41562164 9.00586624 13.83124329 9.01173248 13.22915649 9.01777649 C7.16221292 9.08157194 1.09580667 9.16595454 -4.97070312 9.26245117 C-7.23658171 9.29576336 -9.50254454 9.32377545 -11.76855469 9.34643555 C-15.0205485 9.37986593 -18.27176585 9.43217562 -21.5234375 9.48828125 C-22.54118256 9.49467117 -23.55892761 9.5010611 -24.60751343 9.50764465 C-26.01874985 9.53733589 -26.01874985 9.53733589 -27.45849609 9.56762695 C-28.28900482 9.57873001 -29.11951355 9.58983307 -29.97518921 9.60127258 C-30.97747055 9.79864265 -30.97747055 9.79864265 -32 10 C-34.15502531 13.23253796 -34.46856135 14.25150923 -34 18 C-32.44291359 20.0269783 -31.53778452 20.89242004 -29.00679016 21.39872742 C-27.87094734 21.415382 -27.87094734 21.415382 -26.7121582 21.43237305 C-25.85149246 21.45216721 -24.99082672 21.47196136 -24.1040802 21.49235535 C-23.17899155 21.49874527 -22.25390289 21.50513519 -21.30078125 21.51171875 C-19.87550362 21.53864555 -19.87550362 21.53864555 -18.4214325 21.56611633 C-15.38516687 21.62031893 -12.34905933 21.65414704 -9.3125 21.6875 C-7.25453525 21.72066428 -5.19659138 21.7551531 -3.13867188 21.79101562 C1.90743819 21.8760512 6.95350056 21.94281498 12 22 C12 22.66 12 23.32 12 24 C10.03533587 25.06775224 8.03144641 26.06553465 6 27 C5.34 26.67 4.68 26.34 4 26 C4.495 25.505 4.495 25.505 5 25 C3.44889526 24.97812622 3.44889526 24.97812622 1.86645508 24.95581055 C-1.98236082 24.89769118 -5.83059999 24.82045977 -9.67895508 24.73754883 C-11.34227108 24.70436345 -13.00569796 24.67631166 -14.66918945 24.65356445 C-17.06509499 24.61990001 -19.45999035 24.5675806 -21.85546875 24.51171875 C-22.5952446 24.50532883 -23.33502045 24.4989389 -24.09721375 24.49235535 C-28.54308862 24.36670029 -31.46144732 23.7451024 -35 21 C-36.52846661 17.94306678 -36.23242445 15.37015453 -36 12 C-35.0769043 9.81152344 -35.0769043 9.81152344 -33 8 C-29.85075875 7.3656846 -26.72368153 7.39498359 -23.51953125 7.390625 C-22.59154221 7.37408875 -21.66355316 7.35755249 -20.70744324 7.34051514 C-17.74239565 7.29191573 -14.77786134 7.27063778 -11.8125 7.25 C-9.80270838 7.2218503 -7.7929408 7.19192429 -5.78320312 7.16015625 C-0.85551099 7.08615355 4.0718942 7.03665194 9 7 C8.3503125 6.57847656 7.700625 6.15695313 7.03125 5.72265625 C6.1959375 5.17480469 5.360625 4.62695312 4.5 4.0625 C3.6646875 3.51722656 2.829375 2.97195312 1.96875 2.41015625 C0.99421875 1.71212891 0.99421875 1.71212891 0 1 C0 0.67 0 0.34 0 0 Z " fill="#4C4C4C" transform="translate(209,234)"/>
<path d="M0 0 C0.33 0 0.66 0 1 0 C1.00586624 0.56962967 1.01173248 1.13925934 1.01777649 1.72615051 C1.08163964 7.64727196 1.16604038 13.56784629 1.26245117 19.48852539 C1.29573508 21.69906406 1.32375612 23.90968843 1.34643555 26.12036133 C1.37991759 29.29545666 1.43223052 32.46976417 1.48828125 35.64453125 C1.49467117 36.63524124 1.5010611 37.62595123 1.50764465 38.64668274 C1.52743881 39.56741074 1.54723297 40.48813873 1.56762695 41.43676758 C1.57873001 42.2472908 1.58983307 43.05781403 1.60127258 43.89289856 C2.10029153 46.52999722 2.82515864 47.45190437 5 49 C8.57756686 49.00082535 8.57756686 49.00082535 12 48 C14.06880642 44.89679038 14.25815578 44.15060522 14.31884766 40.62036133 C14.33871735 39.73967484 14.35858704 38.85898834 14.37905884 37.95161438 C14.39061005 37.00465195 14.40216125 36.05768951 14.4140625 35.08203125 C14.43342865 34.10965012 14.4527948 33.13726898 14.4727478 32.13542175 C14.5325555 29.02787056 14.5789339 25.92028235 14.625 22.8125 C14.66317867 20.706364 14.70223033 18.60024363 14.7421875 16.49414062 C14.83825811 11.32955395 14.92228491 6.16489418 15 1 C15.99 1.99 16.98 2.98 18 4 C17.67 4.66 17.34 5.32 17 6 C16.8912106 8.92944952 16.83859197 11.83935805 16.82421875 14.76953125 C16.80101779 16.56316274 16.77690035 18.35678257 16.75195312 20.15039062 C16.71685235 22.98128022 16.6875036 25.81174165 16.67407227 28.64282227 C16.65857971 31.37308784 16.61835952 34.10209805 16.57421875 36.83203125 C16.57612717 37.67490189 16.57803558 38.51777252 16.58000183 39.38618469 C16.4958675 43.43704085 16.29857509 45.52167208 14.10498047 49.03588867 C12 51 12 51 9.74609375 51.59375 C8.98425781 51.5628125 8.22242188 51.531875 7.4375 51.5 C6.67308594 51.4896875 5.90867188 51.479375 5.12109375 51.46875 C2.48130697 50.88537171 1.68255632 50.09099329 0 48 C-0.39872742 46.04475403 -0.39872742 46.04475403 -0.43237305 43.80395508 C-0.45216721 42.96331009 -0.47196136 42.1226651 -0.49235535 41.25654602 C-0.49874527 40.35333115 -0.50513519 39.45011627 -0.51171875 38.51953125 C-0.52966995 37.59154221 -0.54762115 36.66355316 -0.56611633 35.70744324 C-0.62031291 32.74250843 -0.654145 29.77773545 -0.6875 26.8125 C-0.72066482 24.80271181 -0.75515369 22.792945 -0.79101562 20.78320312 C-0.87604479 15.85558535 -0.94281138 10.92801636 -1 6 C-1.99 6.495 -1.99 6.495 -3 7 C-1.125 1.125 -1.125 1.125 0 0 Z " fill="#0E0E0E" transform="translate(242,275)"/>
<path d="M0 0 C14.52 0 29.04 0 44 0 C44 0.33 44 0.66 44 1 C31.13 1.33 18.26 1.66 5 2 C7.84625 3.629375 10.6925 5.25875 13.625 6.9375 C19.87519922 10.54594043 26.08949054 14.20139605 32.1875 18.0625 C32.78062988 18.43173584 33.37375977 18.80097168 33.98486328 19.18139648 C35.36060055 20.0653253 36.68694695 21.02538476 38 22 C38 22.66 38 23.32 38 24 C35.03216329 22.56389538 32.21635864 20.96838454 29.3984375 19.2578125 C25.87382037 17.12752097 22.33976988 15.01621324 18.7890625 12.9296875 C17.06770833 11.91145833 15.34635417 10.89322917 13.625 9.875 C12.31208984 9.10736328 12.31208984 9.10736328 10.97265625 8.32421875 C10.12832031 7.82277344 9.28398437 7.32132812 8.4140625 6.8046875 C7.6607666 6.36108887 6.9074707 5.91749023 6.13134766 5.46044922 C4 4 4 4 0 0 Z " fill="#232323" transform="translate(278,257)"/>
<path d="M0 0 C-3.63 1.98 -7.26 3.96 -11 6 C-9.21384277 6.01401855 -9.21384277 6.01401855 -7.39160156 6.02832031 C-2.97064908 6.06821387 1.44960703 6.13397073 5.87011719 6.20751953 C7.78278656 6.23573286 9.6955726 6.25694561 11.60839844 6.27099609 C14.35933173 6.29242081 17.10886175 6.3390674 19.859375 6.390625 C20.71368103 6.39185364 21.56798706 6.39308228 22.44818115 6.39434814 C28.38124419 6.54049153 28.38124419 6.54049153 31.55175781 8.89501953 C33.30421218 11.4421641 33.40600497 12.59011283 33 15.625 C32.9175 16.40101563 32.835 17.17703125 32.75 17.9765625 C32 20 32 20 29.9375 21.2734375 C29.298125 21.51320313 28.65875 21.75296875 28 22 C28.66 21.01 29.32 20.02 30 19 C30.37167184 16.23979004 30.17850636 13.81147524 30 11 C27.57994862 8.57994862 26.95688779 8.73670762 23.64208984 8.68115234 C22.74130707 8.66128265 21.84052429 8.64141296 20.91244507 8.62094116 C19.93844757 8.60938995 18.96445007 8.59783875 17.9609375 8.5859375 C16.96494537 8.56657135 15.96895325 8.5472052 14.94277954 8.5272522 C11.7536075 8.46735035 8.56439957 8.42102862 5.375 8.375 C3.21612987 8.33682999 1.05727512 8.29777884 -1.1015625 8.2578125 C-6.40090534 8.1616403 -11.70034043 8.07662411 -17 8 C-14.40490812 5.28936023 -11.79474304 3.57450824 -8.5 1.75 C-7.5409375 1.20859375 -6.581875 0.6671875 -5.59375 0.109375 C-3 -1 -3 -1 0 0 Z " fill="#3D3D3D" transform="translate(294,235)"/>
<path d="M0 0 C0.7940625 0.06703125 1.588125 0.1340625 2.40625 0.203125 C4.5 0.75 4.5 0.75 6.5 3.75 C6.7784729 5.6672821 6.7784729 5.6672821 6.81884766 7.85424805 C6.83871735 8.67487228 6.85858704 9.49549652 6.87905884 10.34098816 C6.89061005 11.22232925 6.90216125 12.10367035 6.9140625 13.01171875 C6.93342865 13.91751175 6.9527948 14.82330475 6.9727478 15.75654602 C7.03253542 18.65010151 7.07892568 21.5436968 7.125 24.4375 C7.16318054 26.39910591 7.20223231 28.36069506 7.2421875 30.32226562 C7.33823632 35.1313744 7.42227043 39.94056166 7.5 44.75 C8.49 43.76 9.48 42.77 10.5 41.75 C9.38243734 45.61848614 8.47126708 48.03922757 5.5 50.75 C5.49635437 50.18037033 5.49270874 49.61074066 5.48895264 49.02384949 C5.44718825 43.1026407 5.37788629 37.18221146 5.29248047 31.26147461 C5.26422981 29.05094189 5.24303575 26.84030738 5.22900391 24.62963867 C5.20763131 21.45438366 5.16100969 18.2803578 5.109375 15.10546875 C5.10814636 14.11475876 5.10691772 13.12404877 5.10565186 12.10331726 C5.08593323 11.18258926 5.0662146 10.26186127 5.04589844 9.31323242 C5.03701599 8.5027092 5.02813354 7.69218597 5.01898193 6.85710144 C4.6558131 4.58655259 4.6558131 4.58655259 2.66119385 2.94917297 C-0.36938865 1.2676058 -2.22136102 1.89470287 -5.5 2.75 C-6.49 3.245 -6.49 3.245 -7.5 3.75 C-7.17 2.76 -6.84 1.77 -6.5 0.75 C-4.04048544 -0.47975728 -2.71743376 -0.26468511 0 0 Z " fill="#313131" transform="translate(251.5,173.25)"/>
<path d="M0 0 C5.75 1.875 5.75 1.875 8 3 C8 3.66 8 4.32 8 5 C9.4540625 5.433125 9.4540625 5.433125 10.9375 5.875 C14 7 14 7 15 9 C-0.18 9 -15.36 9 -31 9 C-31 8.67 -31 8.34 -31 8 C-17.8 7.67 -4.6 7.34 9 7 C6.03 5.02 3.06 3.04 0 1 C0 0.67 0 0.34 0 0 Z " fill="#757575" transform="translate(209,234)"/>
<path d="M0 0 C0.33 0 0.66 0 1 0 C1.33 15.84 1.66 31.68 2 48 C1.34 48 0.68 48 0 48 C-0.495 27.21 -0.495 27.21 -1 6 C-1.99 6.495 -1.99 6.495 -3 7 C-1.125 1.125 -1.125 1.125 0 0 Z " fill="#424242" transform="translate(242,275)"/>
<path d="M0 0 C13.53 0 27.06 0 41 0 C39 3 39 3 36.375 3.6875 C35.199375 3.8421875 35.199375 3.8421875 34 4 C34.33 3.34 34.66 2.68 35 2 C23.45 1.67 11.9 1.34 0 1 C0 0.67 0 0.34 0 0 Z " fill="#060606" transform="translate(179,257)"/>
<path d="M0 0 C2.01542962 1.1214006 3.96886389 2.30822467 5.91894531 3.53955078 C6.59441406 3.94753906 7.26988281 4.35552734 7.96582031 4.77587891 C12.89892968 7.81201951 12.89892968 7.81201951 14.04394531 10.10205078 C9.96948395 9.47901421 7.16848977 7.30657295 3.79394531 5.03955078 C-1.33620094 1.72445416 -4.82265659 0.06053035 -10.95605469 1.10205078 C-11.94605469 1.59705078 -11.94605469 1.59705078 -12.95605469 2.10205078 C-12.62605469 1.11205078 -12.29605469 0.12205078 -11.95605469 -0.89794922 C-7.68726038 -2.32088066 -4.12142144 -1.89198553 0 0 Z " fill="#313131" transform="translate(196.9560546875,207.89794921875)"/>
<path d="M0 0 C0.33 0.66 0.66 1.32 1 2 C-0.98 4.97 -0.98 4.97 -3 8 C-0.03 7.01 2.94 6.02 6 5 C6 5.66 6 6.32 6 7 C4.04669132 8.03041513 2.08718472 9.0490893 0.125 10.0625 C-0.96554687 10.63097656 -2.05609375 11.19945312 -3.1796875 11.78515625 C-4.11039062 12.18605469 -5.04109375 12.58695313 -6 13 C-6.66 12.67 -7.32 12.34 -8 12 C-6.85573734 10.186508 -5.70954608 8.37423275 -4.5625 6.5625 C-3.60537109 5.04849609 -3.60537109 5.04849609 -2.62890625 3.50390625 C-1 1 -1 1 0 0 Z " fill="#393939" transform="translate(277,218)"/>
<path d="M0 0 C3.67882073 3.28466137 5.75150101 6.66360908 8 11 C8 11.66 8 12.32 8 13 C4.37723685 11.6744419 1.36494652 10.05653045 -1.8125 7.875 C-2.60269531 7.33617187 -3.39289063 6.79734375 -4.20703125 6.2421875 C-4.79871094 5.83226562 -5.39039063 5.42234375 -6 5 C-5.34 4.67 -4.68 4.34 -4 4 C-1.5249829 5.11431765 0.67883419 6.58150978 3 8 C2.505 7.05125 2.01 6.1025 1.5 5.125 C0 2 0 2 0 0 Z " fill="#313131" transform="translate(222,217)"/>
<path d="M0 0 C0.33 0.99 0.66 1.98 1 3 C-0.39949349 5.50973885 -1.82628407 7.82169398 -3.4375 10.1875 C-3.87126953 10.84169922 -4.30503906 11.49589844 -4.75195312 12.16992188 C-5.82545983 13.78608033 -6.9115597 15.39386099 -8 17 C-8.33 16.01 -8.66 15.02 -9 14 C-7.78799652 11.67552955 -6.551314 9.55978866 -5.125 7.375 C-4.74730469 6.776875 -4.36960937 6.17875 -3.98046875 5.5625 C-1.21928377 1.21928377 -1.21928377 1.21928377 0 0 Z " fill="#323232" transform="translate(290,196)"/>
<path d="M0 0 C0.99 0.33 1.98 0.66 3 1 C1.71034824 2.37562854 0.37310707 3.70766393 -1 5 C-1.66 5 -2.32 5 -3 5 C-4.485 5.7734375 -4.485 5.7734375 -6 6.5625 C-6.99 7.036875 -7.98 7.51125 -9 8 C-9.66 7.67 -10.32 7.34 -11 7 C-11 6.34 -11 5.68 -11 5 C-9.93458984 4.58427734 -9.93458984 4.58427734 -8.84765625 4.16015625 C-7.46900391 3.61681641 -7.46900391 3.61681641 -6.0625 3.0625 C-5.14597656 2.70285156 -4.22945312 2.34320313 -3.28515625 1.97265625 C-1.07581467 1.2003782 -1.07581467 1.2003782 0 0 Z " fill="#4F4F4F" transform="translate(228,268)"/>
<path d="M0 0 C0.33 0 0.66 0 1 0 C1.33 4.29 1.66 8.58 2 13 C2.99 12.01 3.98 11.02 5 10 C3.81323934 14.10801767 3.10551666 15.89448334 0 19 C0 12.73 0 6.46 0 0 Z " fill="#383838" transform="translate(257,205)"/>
<path d="M0 0 C5.75 1.875 5.75 1.875 8 3 C8 3.66 8 4.32 8 5 C9.32 5.66 10.64 6.32 12 7 C8.38862487 7 7.25267809 6.07469918 4.3125 4.0625 C3.50425781 3.51722656 2.69601563 2.97195312 1.86328125 2.41015625 C1.24839844 1.94480469 0.63351563 1.47945312 0 1 C0 0.67 0 0.34 0 0 Z " fill="#454545" transform="translate(209,234)"/>
<path d="M0 0 C2.88437779 1.29299694 4.87219421 2.65941363 7 5 C5.68 5.33 4.36 5.66 3 6 C0 2.25 0 2.25 0 0 Z " fill="#484848" transform="translate(269,268)"/>
<path d="M0 0 C3.48331435 3.01887244 4.79157144 5.56909529 6 10 C4.5 8.625 4.5 8.625 3 7 C3 6.34 3 5.68 3 5 C2.01 4.67 1.02 4.34 0 4 C0 2.68 0 1.36 0 0 Z " fill="#383838" transform="translate(226,194)"/>
</svg>
